<svg width="229" height="130" viewBox="0 0 229 130" fill="none" xmlns="http://www.w3.org/2000/svg">
<path d="M0.565348 24.4086C0.672248 23.9371 1.02952 23.5597 1.49547 23.426L36.4649 13.4486C36.8187 13.3479 37.1847 13.5516 37.2822 13.9035C37.3797 14.2554 37.1719 14.6224 36.8181 14.7232L3.41433 24.2578L27.5012 29.2527C27.8597 29.3272 28.0869 29.678 28.0087 30.0363C27.9306 30.3946 27.5766 30.6247 27.2181 30.5503L2.76618 25.4787L11.0812 32.6859L21.6584 42.7937C21.806 42.9355 22.0118 43.0004 22.2157 42.9694C22.4109 42.9393 22.5814 42.8195 22.6762 42.646L27.7059 34.2851L30.0521 30.1857C30.2345 29.8665 30.6403 29.7526 30.9586 29.9313C30.9978 29.9582 31.0338 29.9894 31.0659 30.0244L31.0786 30.0146L37.8569 35.2413L33.7427 24.8362L13.6173 25.2933C13.3711 25.3133 13.1354 25.1958 13.0052 24.9879C12.875 24.78 12.8719 24.5162 12.9969 24.3028C13.122 24.0893 13.3548 23.9615 13.6014 23.9708L33.8269 23.5071L40.238 12.606C40.4258 12.2918 40.831 12.1852 41.1454 12.3672C41.4598 12.5492 41.5655 12.9517 41.3821 13.2683L34.9356 24.2261L39.097 34.7557C39.3109 35.3004 39.1353 35.924 38.6667 36.2837L38.6546 36.2931C38.3963 36.4855 38.077 36.577 37.7577 36.5501C37.7308 36.5533 37.7037 36.5547 37.6767 36.5543L28.5878 35.3344L23.8253 43.3028C23.5287 43.8272 23.006 44.1868 22.4108 44.276C21.8006 44.3719 21.183 44.1801 20.7395 43.7568L10.1835 33.6669L0.993903 25.7033C0.622181 25.3857 0.457528 24.8883 0.565348 24.4086ZM35.2224 34.8893L30.8242 31.5009L29.6404 33.5738L29.3274 34.0977L35.2224 34.8893Z" fill="#F5E8D0"/>
<path opacity="0.7" d="M39.0001 35.5002C39.0001 35.5002 60.5001 26.5002 78.5001 38.0002C93.0001 53 78.5001 58.5002 90.5001 76.5002C94.7609 82.8914 105.473 84.7065 117 84.5316C150 73 154.5 104 185 68" stroke="white" stroke-linecap="round" stroke-dasharray="2 5"/>
<g filter="url(#filter0_b_0_126)">
<path d="M186.647 45.0695C187.649 43.9069 189.532 44.2586 190.047 45.7042L194.943 59.4611C195.245 60.3098 196.077 60.8519 196.975 60.785L211.537 59.7009C213.068 59.587 214.151 61.1676 213.492 62.5536L207.227 75.7433C206.84 76.557 207.045 77.5288 207.728 78.1167L218.791 87.647C219.954 88.6485 219.602 90.532 218.157 91.0465L204.4 95.9426C203.551 96.2447 203.009 97.0769 203.076 97.9753L204.16 112.537C204.274 114.067 202.693 115.151 201.307 114.492L188.118 108.227C187.304 107.84 186.332 108.045 185.744 108.728L176.214 119.791C175.212 120.954 173.329 120.602 172.814 119.157L167.918 105.4C167.616 104.551 166.784 104.009 165.885 104.076L151.324 105.16C149.793 105.274 148.71 103.693 149.369 102.307L155.634 89.1175C156.021 88.3038 155.815 87.332 155.133 86.744L144.07 77.2137C142.907 76.2123 143.259 74.3287 144.704 73.8142L158.461 68.9181C159.31 68.6161 159.852 67.7838 159.785 66.8854L158.701 52.3235C158.587 50.7933 160.168 49.7101 161.554 50.3685L174.743 56.634C175.557 57.0206 176.529 56.8154 177.117 56.1328L186.647 45.0695Z" fill="#F59B00"/>
<path d="M189.576 45.8718L194.472 59.6288C194.849 60.6897 195.89 61.3672 197.013 61.2836L211.574 60.1996C212.722 60.1141 213.535 61.2995 213.041 62.339L206.775 75.5287C206.292 76.5459 206.548 77.7606 207.402 78.4956L218.465 88.0258C219.337 88.7769 219.073 90.1896 217.989 90.5755L204.232 95.4716C203.171 95.8492 202.494 96.8894 202.577 98.0125L203.661 112.574C203.747 113.722 202.561 114.534 201.522 114.041L188.332 107.775C187.315 107.292 186.1 107.548 185.365 108.402L175.835 119.465C175.084 120.337 173.671 120.073 173.285 118.989L168.389 105.232C168.012 104.171 166.971 103.494 165.848 103.577L151.286 104.661C150.139 104.747 149.326 103.561 149.82 102.522L156.086 89.332C156.569 88.3149 156.312 87.1002 155.459 86.3652L144.396 76.8349C143.524 76.0838 143.788 74.6711 144.872 74.2853L158.629 69.3892C159.69 69.0116 160.367 67.9713 160.284 66.8483L159.2 52.2864C159.114 51.1387 160.3 50.3263 161.339 50.8201L174.529 57.0857C175.546 57.5689 176.761 57.3124 177.496 56.4592L187.026 45.3958C187.777 44.5239 189.19 44.7876 189.576 45.8718Z" stroke="white"/>
</g>
<path d="M167.356 74.3424C167.403 73.409 167.729 72.6904 168.336 72.1864C168.952 71.673 169.759 71.4164 170.758 71.4164C171.439 71.4164 172.023 71.5377 172.508 71.7804C172.993 72.0137 173.357 72.3357 173.6 72.7464C173.852 73.1477 173.978 73.605 173.978 74.1184C173.978 74.7064 173.824 75.2057 173.516 75.6164C173.217 76.0177 172.858 76.2884 172.438 76.4284V76.4844C172.979 76.6524 173.399 76.951 173.698 77.3804C174.006 77.8097 174.16 78.3604 174.16 79.0324C174.16 79.5924 174.029 80.0917 173.768 80.5304C173.516 80.969 173.138 81.3144 172.634 81.5664C172.139 81.809 171.542 81.9304 170.842 81.9304C169.787 81.9304 168.929 81.6644 168.266 81.1324C167.603 80.6004 167.253 79.8164 167.216 78.7804H169.12C169.139 79.2377 169.293 79.6064 169.582 79.8864C169.881 80.157 170.287 80.2924 170.8 80.2924C171.276 80.2924 171.64 80.1617 171.892 79.9004C172.153 79.6297 172.284 79.2844 172.284 78.8644C172.284 78.3044 172.107 77.903 171.752 77.6604C171.397 77.4177 170.847 77.2964 170.1 77.2964H169.694V75.6864H170.1C171.425 75.6864 172.088 75.243 172.088 74.3564C172.088 73.955 171.967 73.6424 171.724 73.4184C171.491 73.1944 171.15 73.0824 170.702 73.0824C170.263 73.0824 169.923 73.2037 169.68 73.4464C169.447 73.6797 169.311 73.9784 169.274 74.3424H167.356ZM175.709 76.6244C175.709 75.0097 175.998 73.745 176.577 72.8304C177.165 71.9157 178.136 71.4584 179.489 71.4584C180.842 71.4584 181.808 71.9157 182.387 72.8304C182.975 73.745 183.269 75.0097 183.269 76.6244C183.269 78.2484 182.975 79.5224 182.387 80.4464C181.808 81.3704 180.842 81.8324 179.489 81.8324C178.136 81.8324 177.165 81.3704 176.577 80.4464C175.998 79.5224 175.709 78.2484 175.709 76.6244ZM181.337 76.6244C181.337 75.9337 181.29 75.355 181.197 74.8884C181.113 74.4124 180.936 74.025 180.665 73.7264C180.404 73.4277 180.012 73.2784 179.489 73.2784C178.966 73.2784 178.57 73.4277 178.299 73.7264C178.038 74.025 177.86 74.4124 177.767 74.8884C177.683 75.355 177.641 75.9337 177.641 76.6244C177.641 77.3337 177.683 77.931 177.767 78.4164C177.851 78.8924 178.028 79.2797 178.299 79.5784C178.57 79.8677 178.966 80.0124 179.489 80.0124C180.012 80.0124 180.408 79.8677 180.679 79.5784C180.95 79.2797 181.127 78.8924 181.211 78.4164C181.295 77.931 181.337 77.3337 181.337 76.6244ZM184.536 74.1604C184.536 73.451 184.741 72.8957 185.152 72.4944C185.572 72.093 186.108 71.8924 186.762 71.8924C187.415 71.8924 187.947 72.093 188.358 72.4944C188.778 72.8957 188.988 73.451 188.988 74.1604C188.988 74.879 188.778 75.439 188.358 75.8404C187.947 76.2417 187.415 76.4424 186.762 76.4424C186.108 76.4424 185.572 76.2417 185.152 75.8404C184.741 75.439 184.536 74.879 184.536 74.1604ZM193.524 72.0604L188.022 81.8604H186.118L191.606 72.0604H193.524ZM186.748 73.0684C186.234 73.0684 185.978 73.4324 185.978 74.1604C185.978 74.8977 186.234 75.2664 186.748 75.2664C187 75.2664 187.196 75.1777 187.336 75.0004C187.476 74.8137 187.546 74.5337 187.546 74.1604C187.546 73.4324 187.28 73.0684 186.748 73.0684ZM190.682 79.7464C190.682 79.0277 190.887 78.4724 191.298 78.0804C191.718 77.679 192.254 77.4784 192.908 77.4784C193.561 77.4784 194.088 77.679 194.49 78.0804C194.9 78.4724 195.106 79.0277 195.106 79.7464C195.106 80.465 194.9 81.025 194.49 81.4264C194.088 81.8277 193.561 82.0284 192.908 82.0284C192.245 82.0284 191.708 81.8277 191.298 81.4264C190.887 81.025 190.682 80.465 190.682 79.7464ZM192.894 78.6544C192.362 78.6544 192.096 79.0184 192.096 79.7464C192.096 80.4837 192.362 80.8524 192.894 80.8524C193.416 80.8524 193.678 80.4837 193.678 79.7464C193.678 79.0184 193.416 78.6544 192.894 78.6544ZM175.807 93.9304C175.154 93.9304 174.554 93.777 174.007 93.4704C173.46 93.1637 173.027 92.7404 172.707 92.2004C172.387 91.6537 172.227 91.037 172.227 90.3504C172.227 89.6704 172.387 89.0604 172.707 88.5204C173.027 87.9737 173.46 87.547 174.007 87.2404C174.554 86.9337 175.154 86.7804 175.807 86.7804C176.467 86.7804 177.067 86.9337 177.607 87.2404C178.154 87.547 178.584 87.9737 178.897 88.5204C179.217 89.0604 179.377 89.6704 179.377 90.3504C179.377 91.037 179.217 91.6537 178.897 92.2004C178.584 92.7404 178.154 93.1637 177.607 93.4704C177.06 93.777 176.46 93.9304 175.807 93.9304ZM175.807 92.6804C176.227 92.6804 176.597 92.587 176.917 92.4004C177.237 92.207 177.487 91.9337 177.667 91.5804C177.847 91.227 177.937 90.817 177.937 90.3504C177.937 89.8837 177.847 89.477 177.667 89.1304C177.487 88.777 177.237 88.507 176.917 88.3204C176.597 88.1337 176.227 88.0404 175.807 88.0404C175.387 88.0404 175.014 88.1337 174.687 88.3204C174.367 88.507 174.117 88.777 173.937 89.1304C173.757 89.477 173.667 89.8837 173.667 90.3504C173.667 90.817 173.757 91.227 173.937 91.5804C174.117 91.9337 174.367 92.207 174.687 92.4004C175.014 92.587 175.387 92.6804 175.807 92.6804ZM184.729 86.8804V88.0104H181.819V89.8004H184.049V90.9104H181.819V93.8604H180.419V86.8804H184.729ZM190.031 86.8804V88.0104H187.121V89.8004H189.351V90.9104H187.121V93.8604H185.721V86.8804H190.031Z" fill="white"/>
<defs>
<filter id="filter0_b_0_126" x="123.374" y="24.3741" width="116.112" height="116.112" filterUnits="userSpaceOnUse" color-interpolation-filters="sRGB">
<feFlood flood-opacity="0" result="BackgroundImageFix"/>
<feGaussianBlur in="BackgroundImageFix" stdDeviation="10"/>
<feComposite in2="SourceAlpha" operator="in" result="effect1_backgroundBlur_0_126"/>
<feBlend mode="normal" in="SourceGraphic" in2="effect1_backgroundBlur_0_126" result="shape"/>
</filter>
</defs>
</svg>
